<svg width="32" height="28" viewBox="0 0 32 28" fill="none" xmlns="http://www.w3.org/2000/svg">
<path d="M27.087 6.82609H25.7826V4.2174H23.1739V1.6087H11.4348V4.2174H3.6087V6.82609H1V13.3478H4.91304V10.7391H6.21739V13.3478H7.52174V21.1739H4.91304V19.8696H7.52174V15.9565H3.6087V18.5652H1V25.087H3.6087V26.3913H23.1739V23.7826H27.087V13.3478H31V6.82609H27.087ZM27.087 6.82609V10.087" stroke="#1B1212" stroke-width="1.82609"/>
<rect x="10.7826" y="15.3044" width="2.6087" height="10.4348" fill="#EC6037"/>
<rect x="8.17392" y="15.3044" width="2.6087" height="10.4348" fill="#EC6037"/>
<rect x="12.087" y="2.26089" width="2.6087" height="2.6087" fill="#250E08"/>
<rect x="12.087" y="4.8696" width="2.6087" height="2.6087" fill="#250E08"/>
<rect x="9.47826" y="4.8696" width="2.6087" height="2.6087" fill="#D3D3AB"/>
<rect x="6.86956" y="4.8696" width="2.6087" height="2.6087" fill="#D3D3AB"/>
<path d="M4.26087 4.8696H6.86957V7.47829H4.26087V4.8696Z" fill="#D3D3AB"/>
<rect x="12.087" y="7.4783" width="2.6087" height="2.6087" fill="#D3D3AB"/>
<rect x="9.47826" y="7.4783" width="2.6087" height="2.6087" fill="#9A9A71"/>
<rect x="6.86956" y="7.4783" width="2.6087" height="2.6087" fill="#D3D3AB"/>
<rect x="4.26087" y="7.4783" width="2.6087" height="2.6087" fill="#9A9A71"/>
<rect x="1.65217" y="10.087" width="2.6087" height="2.6087" fill="#D3D3AB"/>
<rect x="1.65217" y="7.4783" width="2.6087" height="2.6087" fill="#D3D3AB"/>
<rect x="14.6956" y="7.4783" width="2.6087" height="2.6087" fill="#D3D3AB"/>
<rect x="14.6956" y="4.8696" width="2.6087" height="2.6087" fill="#250E08"/>
<rect x="10.7826" y="10.087" width="3.91304" height="2.6087" fill="#250E08"/>
<rect x="14.6956" y="2.26089" width="2.6087" height="2.6087" fill="#3C251F"/>
<rect x="17.3044" y="2.26089" width="2.6087" height="2.6087" fill="#3C251F"/>
<rect x="17.3044" y="4.8696" width="2.6087" height="2.6087" fill="#3C251F"/>
<rect x="17.3044" y="10.087" width="2.6087" height="2.6087" fill="#3C251F"/>
<rect x="14.6956" y="10.087" width="2.6087" height="2.6087" fill="#3C251F"/>
<rect x="13.3913" y="12.6957" width="2.6087" height="2.6087" fill="#27221C"/>
<rect x="16" y="12.6957" width="2.6087" height="2.6087" fill="#C5A37D"/>
<rect x="16" y="17.9131" width="2.6087" height="2.6087" fill="#F7D5AF"/>
<rect x="21.2174" y="17.9131" width="2.6087" height="2.6087" fill="#F7D5AF"/>
<rect x="14.6956" y="23.1305" width="7.82609" height="2.6087" fill="#CFAD87"/>
<rect x="10.7826" y="12.6957" width="2.6087" height="2.6087" fill="#BD9162"/>
<rect x="10.7826" y="12.6957" width="2.6087" height="2.6087" fill="#C1421C"/>
<rect x="8.17392" y="12.6957" width="2.6087" height="2.6087" fill="#C1421C"/>
<rect x="23.8261" y="12.6957" width="2.6087" height="2.6087" fill="#EC6037"/>
<rect x="23.8261" y="15.3044" width="2.6087" height="2.6087" fill="#EC6037"/>
<rect x="23.8261" y="17.9131" width="2.6087" height="2.6087" fill="#EC6037"/>
<rect x="22.5217" y="20.5218" width="3.91304" height="2.6087" fill="#EC6037"/>
<path d="M13.3913 23.1305H14.6957V25.7392H13.3913V23.1305Z" fill="#EC6037"/>
<rect x="5.56522" y="21.8261" width="2.6087" height="3.91304" fill="#EC6037"/>
<rect x="4.26087" y="21.8261" width="3.91304" height="3.91304" fill="#EC6037"/>
<rect x="1.65217" y="21.8261" width="2.6087" height="2.6087" fill="#EC6037"/>
<rect x="1.65217" y="19.2174" width="2.6087" height="2.6087" fill="#EC6037"/>
<rect x="4.26087" y="16.6087" width="2.6087" height="2.6087" fill="#EC6037"/>
<rect x="18.6087" y="17.9131" width="2.6087" height="2.6087" fill="#AA6049"/>
<rect x="18.6087" y="12.6957" width="2.6087" height="2.6087" fill="#C5A37D"/>
<rect x="16" y="15.3044" width="7.82609" height="2.6087" fill="#F7D5AF"/>
<rect x="21.2174" y="12.6957" width="2.6087" height="2.6087" fill="#27221C"/>
<rect x="6.86956" y="10.087" width="3.91304" height="2.6087" fill="#3C251F"/>
<rect x="19.913" y="10.087" width="2.6087" height="2.6087" fill="#3C251F"/>
<rect x="22.5217" y="10.087" width="2.6087" height="2.6087" fill="#3C251F"/>
<rect x="25.1304" y="10.087" width="2.6087" height="2.6087" fill="#3C251F"/>
<rect x="27.7391" y="10.087" width="2.6087" height="2.6087" fill="#3C251F"/>
<rect x="27.7391" y="7.4783" width="2.6087" height="2.6087" fill="#3C251F"/>
<rect x="19.913" y="4.8696" width="2.6087" height="2.6087" fill="#3C251F"/>
<rect x="22.5217" y="4.8696" width="2.6087" height="2.6087" fill="#3C251F"/>
<rect x="19.913" y="2.26089" width="2.6087" height="2.6087" fill="#3C251F"/>
<rect x="14.6956" y="20.5218" width="7.82609" height="2.6087" fill="#F7D5AF"/>
<rect x="13.3913" y="15.3044" width="2.6087" height="7.82609" fill="#CFAD87"/>
<rect x="17.3044" y="7.4783" width="9.13043" height="2.6087" fill="#7B8134"/>
</svg>
