<svg width="32" height="24" viewBox="0 0 32 24" fill="none" xmlns="http://www.w3.org/2000/svg">
<path d="M27.087 6.13045H25.7826V3.52175H23.1739V0.913055H11.4348V3.52175H3.6087V6.13045H1V12.6522H4.91304V10.0435H6.21739V12.6522H7.52174V15.2609H8.82609V17.8696H11.4348V21.7826H14.0435V23.087H23.1739V20.4783H24.7391V15.2609H27.087V12.6522H31V6.13045H27.087ZM27.087 6.13045V9.39132" stroke="#1B1212" stroke-width="1.82609"/>
<rect x="9.47826" y="14.6087" width="2.6087" height="2.6087" fill="#352521"/>
<rect x="12.087" y="1.56522" width="2.6087" height="2.6087" fill="#523A20"/>
<rect x="12.087" y="4.17392" width="2.6087" height="2.6087" fill="#523A20"/>
<rect x="9.47826" y="4.17392" width="2.6087" height="2.6087" fill="#D8C3AF"/>
<rect x="6.86956" y="4.17392" width="2.6087" height="2.6087" fill="#D8C3AF"/>
<path d="M4.26087 4.17392H6.86956V6.78262H4.26087V4.17392Z" fill="#D8C3AF"/>
<rect x="12.087" y="6.78262" width="2.6087" height="2.6087" fill="#D8C3AF"/>
<rect x="9.47826" y="6.78262" width="2.6087" height="2.6087" fill="#746353"/>
<rect x="6.86956" y="6.78262" width="2.6087" height="2.6087" fill="#D8C3AF"/>
<rect x="4.26087" y="6.78262" width="2.6087" height="2.6087" fill="#746353"/>
<rect x="1.65217" y="9.3913" width="2.6087" height="2.6087" fill="#D8C3AF"/>
<rect x="1.65217" y="6.78262" width="2.6087" height="2.6087" fill="#D8C3AF"/>
<rect x="14.6957" y="6.78262" width="2.6087" height="2.6087" fill="#D8C3AF"/>
<rect x="14.6957" y="4.17392" width="2.6087" height="2.6087" fill="#523A20"/>
<rect x="10.7826" y="9.3913" width="3.91304" height="2.6087" fill="#523A20"/>
<rect x="14.6957" y="1.56522" width="2.6087" height="2.6087" fill="#785D40"/>
<rect x="17.3043" y="1.56522" width="2.6087" height="2.6087" fill="#785D40"/>
<rect x="17.3043" y="4.17392" width="2.6087" height="2.6087" fill="#785D40"/>
<rect x="17.3043" y="9.3913" width="2.6087" height="2.6087" fill="#785D40"/>
<rect x="14.6957" y="9.3913" width="2.6087" height="2.6087" fill="#785D40"/>
<rect x="13.3913" y="12" width="2.6087" height="2.6087" fill="#111114"/>
<rect x="16" y="12" width="2.6087" height="2.6087" fill="#C2A380"/>
<rect x="14.6957" y="17.2174" width="3.91304" height="2.6087" fill="#E2C3A0"/>
<rect x="14.6957" y="19.8261" width="3.91304" height="2.6087" fill="#E2C3A0"/>
<rect x="18.6087" y="19.8261" width="3.91304" height="2.6087" fill="#E2C3A0"/>
<rect x="21.2174" y="17.2174" width="2.6087" height="2.6087" fill="#E2C3A0"/>
<rect x="10.7826" y="12" width="2.6087" height="2.6087" fill="#BD9162"/>
<rect x="10.7826" y="12" width="2.6087" height="2.6087" fill="#291B18"/>
<rect x="8.17391" y="12" width="2.6087" height="2.6087" fill="#291B18"/>
<rect x="23.8261" y="12" width="2.6087" height="2.6087" fill="#352521"/>
<rect x="18.6087" y="17.2174" width="2.6087" height="2.6087" fill="#9A675C"/>
<rect x="18.6087" y="12" width="2.6087" height="2.6087" fill="#C2A380"/>
<rect x="14.6957" y="14.6087" width="3.91304" height="2.6087" fill="#E2C3A0"/>
<rect x="18.6087" y="14.6087" width="2.6087" height="2.6087" fill="#E2C3A0"/>
<rect x="21.2174" y="14.6087" width="2.6087" height="2.6087" fill="#E2C3A0"/>
<rect x="21.2174" y="12" width="2.6087" height="2.6087" fill="#0C0C0F"/>
<rect x="6.86956" y="9.3913" width="3.91304" height="2.6087" fill="#785D40"/>
<rect x="19.913" y="9.3913" width="2.6087" height="2.6087" fill="#785D40"/>
<rect x="22.5217" y="9.3913" width="2.6087" height="2.6087" fill="#785D40"/>
<rect x="25.1304" y="9.3913" width="2.6087" height="2.6087" fill="#785D40"/>
<rect x="27.7391" y="9.3913" width="2.6087" height="2.6087" fill="#785D40"/>
<rect x="27.7391" y="6.78262" width="2.6087" height="2.6087" fill="#785D40"/>
<rect x="19.913" y="4.17392" width="2.6087" height="2.6087" fill="#785D40"/>
<rect x="22.5217" y="4.17392" width="2.6087" height="2.6087" fill="#785D40"/>
<rect x="19.913" y="1.56522" width="2.6087" height="2.6087" fill="#785D40"/>
<rect x="12.087" y="14.6087" width="2.6087" height="6.52174" fill="#C2A380"/>
<rect x="17.3043" y="6.78262" width="9.13043" height="2.6087" fill="#392B1C"/>
</svg>
