<svg width="32" height="32" viewBox="0 0 32 32" fill="none" xmlns="http://www.w3.org/2000/svg">
<path d="M27.087 8.82609H25.7826V6.2174H23.1739V3.6087H11.4348V6.2174H3.6087V8.82609H1V15.3478H4.91304V12.7391H6.21739V15.3478H7.52174V23.1739H4.91304V21.8696H7.52174V17.9565H3.6087V20.5652H1V27.087H3.6087V28.3913H23.1739V25.7826H27.087V15.3478H31V8.82609H27.087ZM27.087 8.82609V12.087" stroke="#1B1212" stroke-width="1.82609"/>
<rect x="10.7826" y="17.3044" width="2.6087" height="10.4348" fill="#E9CE8A"/>
<rect x="8.17392" y="17.3044" width="2.6087" height="10.4348" fill="#E9CE8A"/>
<rect x="12.087" y="4.26086" width="2.6087" height="2.6087" fill="#20242A"/>
<rect x="12.087" y="6.86954" width="2.6087" height="2.6087" fill="#20242A"/>
<rect x="9.47826" y="6.86954" width="2.6087" height="2.6087" fill="white"/>
<rect x="6.86957" y="6.86954" width="2.6087" height="2.6087" fill="white"/>
<path d="M4.26086 6.86954H6.86956V9.47823H4.26086V6.86954Z" fill="white"/>
<rect x="12.087" y="9.47827" width="2.6087" height="2.6087" fill="white"/>
<rect x="9.47826" y="9.47827" width="2.6087" height="2.6087" fill="#D9D9D9"/>
<rect x="6.86957" y="9.47827" width="2.6087" height="2.6087" fill="white"/>
<rect x="4.26086" y="9.47827" width="2.6087" height="2.6087" fill="#D9D9D9"/>
<rect x="1.65218" y="12.087" width="2.6087" height="2.6087" fill="white"/>
<rect x="1.65218" y="9.47827" width="2.6087" height="2.6087" fill="white"/>
<rect x="14.6956" y="9.47827" width="2.6087" height="2.6087" fill="white"/>
<rect x="14.6956" y="6.86954" width="2.6087" height="2.6087" fill="#20242A"/>
<rect x="17.3044" y="9.47827" width="9.13043" height="2.6087" fill="#3B818E"/>
<rect x="10.7826" y="12.087" width="3.91304" height="2.6087" fill="#20242A"/>
<rect x="14.6956" y="4.26086" width="2.6087" height="2.6087" fill="#2D3844"/>
<rect x="17.3044" y="4.26086" width="2.6087" height="2.6087" fill="#2D3844"/>
<rect x="17.3044" y="6.86954" width="2.6087" height="2.6087" fill="#2D3844"/>
<rect x="17.3044" y="12.087" width="2.6087" height="2.6087" fill="#2D3844"/>
<rect x="14.6956" y="12.087" width="2.6087" height="2.6087" fill="#2D3844"/>
<rect x="13.3913" y="14.6956" width="2.6087" height="2.6087" fill="#1C2327"/>
<rect x="16" y="14.6956" width="2.6087" height="2.6087" fill="#D7BB9B"/>
<rect x="16" y="19.913" width="2.6087" height="2.6087" fill="#FFE3C3"/>
<rect x="21.2174" y="19.913" width="2.6087" height="2.6087" fill="#FFE3C3"/>
<rect x="14.6956" y="25.1305" width="7.82609" height="2.6087" fill="#D7BB9B"/>
<rect x="10.7826" y="14.6956" width="2.6087" height="2.6087" fill="#BD9162"/>
<rect x="10.7826" y="14.6956" width="2.6087" height="2.6087" fill="#C8AD69"/>
<rect x="8.17392" y="14.6956" width="2.6087" height="2.6087" fill="#C8AD69"/>
<rect x="23.8261" y="14.6956" width="2.6087" height="2.6087" fill="#E9CE8A"/>
<rect x="23.8261" y="17.3044" width="2.6087" height="2.6087" fill="#E9CE8A"/>
<rect x="23.8261" y="19.913" width="2.6087" height="2.6087" fill="#E9CE8A"/>
<rect x="22.5217" y="22.5217" width="3.91304" height="2.6087" fill="#E9CE8A"/>
<path d="M13.3913 25.1305H14.6956V27.7392H13.3913V25.1305Z" fill="#E9CE8A"/>
<rect x="5.56523" y="23.8261" width="2.6087" height="3.91304" fill="#E9CE8A"/>
<rect x="4.26086" y="23.8261" width="3.91304" height="3.91304" fill="#E9CE8A"/>
<rect x="1.65218" y="23.8261" width="2.6087" height="2.6087" fill="#E9CE8A"/>
<rect x="1.65218" y="21.2174" width="2.6087" height="2.6087" fill="#E9CE8A"/>
<rect x="4.26086" y="18.6087" width="2.6087" height="2.6087" fill="#E9CE8A"/>
<rect x="18.6087" y="19.913" width="2.6087" height="2.6087" fill="#D993C6"/>
<rect x="18.6087" y="14.6956" width="2.6087" height="2.6087" fill="#D7BB9B"/>
<rect x="16" y="17.3044" width="7.82609" height="2.6087" fill="#FFE3C3"/>
<rect x="21.2174" y="14.6956" width="2.6087" height="2.6087" fill="#1C2327"/>
<rect x="6.86957" y="12.087" width="3.91304" height="2.6087" fill="#2D3844"/>
<rect x="19.913" y="12.087" width="2.6087" height="2.6087" fill="#2D3844"/>
<rect x="22.5217" y="12.087" width="2.6087" height="2.6087" fill="#2D3844"/>
<rect x="25.1304" y="12.087" width="2.6087" height="2.6087" fill="#2D3844"/>
<rect x="27.7391" y="12.087" width="2.6087" height="2.6087" fill="#2D3844"/>
<rect x="27.7391" y="9.47827" width="2.6087" height="2.6087" fill="#2D3844"/>
<rect x="19.913" y="6.86954" width="2.6087" height="2.6087" fill="#2D3844"/>
<rect x="22.5217" y="6.86954" width="2.6087" height="2.6087" fill="#2D3844"/>
<rect x="19.913" y="4.26086" width="2.6087" height="2.6087" fill="#2D3844"/>
<rect x="14.6956" y="22.5217" width="7.82609" height="2.6087" fill="#FFE3C3"/>
<rect x="13.3913" y="17.3044" width="2.6087" height="7.82609" fill="#D7BB9B"/>
</svg>
